name Walk4.mot
datacolumns 19
datarows 22
range 2.48200000 2.50300000
endheader

                time	   L_ground_force_vx	   L_ground_force_vy	   L_ground_force_vz	   L_ground_force_px	   L_ground_force_py	   L_ground_force_pz	   R_ground_force_vx	   R_ground_force_vy	   R_ground_force_vz	   R_ground_force_px	   R_ground_force_py	   R_ground_force_pz	   L_ground_torque_x	   L_ground_torque_y	   L_ground_torque_z	   R_ground_torque_x	   R_ground_torque_y	   R_ground_torque_z	
          2.48200000	          0.00921477	          0.01301642	         -0.00169487	         -0.00018573	          0.00000000	         -0.00003744	        -34.10994785	        666.46199114	        -38.56671811	          0.11776461	          0.00000000	          0.08507450	          0.00000000	          0.00014820	          0.00000000	          0.00000000	          5.68073599	          0.00000000	
          2.48300000	          0.00802607	          0.00991368	         -0.00162131	         -0.00017318	          0.00000000	         -0.00003498	        -33.67582150	        665.43696560	        -38.47331478	          0.11786467	          0.00000000	          0.08512720	          0.00000000	          0.00013766	          0.00000000	          0.00000000	          5.63991913	          0.00000000	
          2.48400000	          0.00690810	          0.00703729	         -0.00154788	         -0.00016105	          0.00000000	         -0.00003259	        -33.24420873	        664.41906793	        -38.38188105	          0.11796484	          0.00000000	          0.08517972	          0.00000000	          0.00012750	          0.00000000	          0.00000000	          5.59937025	          0.00000000	
          2.48500000	          0.00585908	          0.00437886	         -0.00147485	         -0.00014933	          0.00000000	         -0.00003029	        -32.81510932	        663.40861495	        -38.29229533	          0.11806513	          0.00000000	          0.08523206	          0.00000000	          0.00011771	          0.00000000	          0.00000000	          5.55908249	          0.00000000	
          2.48600000	          0.00487712	          0.00192992	         -0.00140245	         -0.00013805	          0.00000000	         -0.00002807	        -32.38852096	        662.40593637	        -38.20443405	          0.11816552	          0.00000000	          0.08528426	          0.00000000	          0.00010832	          0.00000000	          0.00000000	          5.51904843	          0.00000000	
          2.48700000	          0.00396021	         -0.00031809	         -0.00133091	         -0.00012720	          0.00000000	         -0.00002593	        -31.96443927	        661.41137526	        -38.11817296	          0.11826599	          0.00000000	          0.08533630	          0.00000000	          0.00009931	          0.00000000	          0.00000000	          5.47926013	          0.00000000	
          2.48800000	          0.00310631	         -0.00237377	         -0.00126042	         -0.00011680	          0.00000000	         -0.00002387	        -31.54285811	        660.42528869	        -38.03338792	          0.11836653	          0.00000000	          0.08538821	          0.00000000	          0.00009070	          0.00000000	          0.00000000	          5.43970914	          0.00000000	
          2.48900000	          0.00231326	         -0.00424569	         -0.00119116	         -0.00010684	          0.00000000	         -0.00002190	        -31.12376987	        659.44804760	        -37.94995568	          0.11846713	          0.00000000	          0.08543998	          0.00000000	          0.00008248	          0.00000000	          0.00000000	          5.40038644	          0.00000000	
          2.49000000	          0.00157890	         -0.00594241	         -0.00112329	         -0.00009732	          0.00000000	         -0.00002002	        -30.70716569	        658.48003560	        -37.86775464	          0.11856778	          0.00000000	          0.08549163	          0.00000000	          0.00007464	          0.00000000	          0.00000000	          5.36128239	          0.00000000	
          2.49100000	          0.00090102	         -0.00747242	         -0.00105694	         -0.00008824	          0.00000000	         -0.00001821	        -30.29303541	        657.52164702	        -37.78666581	          0.11866845	          0.00000000	          0.08554315	          0.00000000	          0.00006719	          0.00000000	          0.00000000	          5.32238668	          0.00000000	
          2.49200000	          0.00027736	         -0.00884410	         -0.00099225	         -0.00007961	          0.00000000	         -0.00001650	        -29.88136719	        656.57328457	        -37.70657406	          0.11876913	          0.00000000	          0.08559454	          0.00000000	          0.00006011	          0.00000000	          0.00000000	          5.28368853	          0.00000000	
          2.49300000	         -0.00029431	         -0.01006573	         -0.00092930	         -0.00007140	          0.00000000	         -0.00001486	        -29.47214719	        655.63535753	        -37.62736955	          0.11886983	          0.00000000	          0.08564581	          0.00000000	          0.00005341	          0.00000000	          0.00000000	          5.24517687	          0.00000000	
          2.49400000	         -0.00081627	         -0.01114546	         -0.00086819	         -0.00006363	          0.00000000	         -0.00001331	        -29.06535945	        654.70828047	        -37.54894898	          0.11897052	          0.00000000	          0.08569695	          0.00000000	          0.00004708	          0.00000000	          0.00000000	          5.20684075	          0.00000000	
          2.49500000	         -0.00129077	         -0.01209128	         -0.00080900	         -0.00005627	          0.00000000	         -0.00001185	        -28.66098612	        653.79247256	        -37.47121661	          0.11907120	          0.00000000	          0.08574796	          0.00000000	          0.00004111	          0.00000000	          0.00000000	          5.16866952	          0.00000000	
          2.49600000	         -0.00172004	         -0.01291098	         -0.00075179	         -0.00004933	          0.00000000	         -0.00001046	        -28.25900793	        652.88835715	        -37.39408480	          0.11917188	          0.00000000	          0.08579885	          0.00000000	          0.00003549	          0.00000000	          0.00000000	          5.13065308	          0.00000000	
          2.49700000	         -0.00210632	         -0.01361220	         -0.00069659	         -0.00004279	          0.00000000	         -0.00000915	        -27.85940452	        651.99636090	        -37.31747410	          0.11927253	          0.00000000	          0.08584962	          0.00000000	          0.00003022	          0.00000000	          0.00000000	          5.09278201	          0.00000000	
          2.49800000	         -0.00245179	         -0.01420237	         -0.00064346	         -0.00003664	          0.00000000	         -0.00000791	        -27.46215471	        651.11691175	        -37.24131300	          0.11937315	          0.00000000	          0.08590028	          0.00000000	          0.00002528	          0.00000000	          0.00000000	          5.05504763	          0.00000000	
          2.49900000	         -0.00275862	         -0.01468868	         -0.00059242	         -0.00003088	          0.00000000	         -0.00000675	        -27.06723638	        650.25043569	        -37.16553760	          0.11947372	          0.00000000	          0.08595083	          0.00000000	          0.00002066	          0.00000000	          0.00000000	          5.01744197	          0.00000000	
          2.50000000	         -0.00302895	         -0.01507815	         -0.00054347	         -0.00002550	          0.00000000	         -0.00000567	        -26.67462614	        649.39735260	        -37.09009134	          0.11957423	          0.00000000	          0.08600127	          0.00000000	          0.00001636	          0.00000000	          0.00000000	          4.97995773	          0.00000000	
          2.50100000	         -0.00326484	         -0.01537752	         -0.00049664	         -0.00002047	          0.00000000	         -0.00000465	        -26.28429878	        648.55807222	        -37.01492490	          0.11967465	          0.00000000	          0.08605160	          0.00000000	          0.00001236	          0.00000000	          0.00000000	          4.94258823	          0.00000000	
          2.50200000	         -0.00346834	         -0.01559333	         -0.00045191	         -0.00001579	          0.00000000	         -0.00000371	        -25.89622680	        647.73299109	        -36.93999633	          0.11977495	          0.00000000	          0.08610181	          0.00000000	          0.00000866	          0.00000000	          0.00000000	          4.90532751	          0.00000000	
          2.50300000	         -0.00364143	         -0.01573187	         -0.00040927	         -0.00001146	          0.00000000	         -0.00000283	        -25.51038017	        646.92249091	        -36.86527121	          0.11987512	          0.00000000	          0.08615188	          0.00000000	          0.00000524	          0.00000000	          0.00000000	          4.86817040	          0.00000000	
